<svg xmlns="http://www.w3.org/2000/svg" viewBox="0 0 400 200" role="img" aria-label="Books, a home with a heart, and a laughing child">
<defs>
<linearGradient id="sky" x1="0" y1="0" x2="0" y2="1"><stop offset="0" stop-color="#fffaf0"/><stop offset="1" stop-color="#fde3b0"/></linearGradient>
<linearGradient id="sun" x1="0" y1="0" x2="0" y2="1"><stop offset="0" stop-color="#f7c63a"/><stop offset="1" stop-color="#e5851a"/></linearGradient>
</defs>
<rect width="400" height="200" fill="url(#sky)"/>
<g stroke="#f2b21c" stroke-width="3.6" stroke-linecap="round" opacity="1"><line x1="288.3" y1="88.0" x2="276.2" y2="81.0"/><line x1="297.2" y1="78.1" x2="294.3" y2="74.1"/><line x1="309.3" y1="72.7" x2="306.4" y2="59.0"/><line x1="322.7" y1="72.7" x2="323.7" y2="67.8"/><line x1="334.8" y1="78.1" x2="343.0" y2="66.8"/><line x1="343.7" y1="88.0" x2="348.0" y2="85.5"/></g><g transform="translate(84 140.9)"><rect x="-30" y="-14" width="60" height="14" rx="3" fill="#c8381e"/><rect x="-26" y="-12" width="6" height="10" fill="#fff8ea" opacity=".7"/><rect x="-25" y="-28" width="52" height="14" rx="3" fill="#f2b21c"/><rect x="15" y="-26" width="6" height="10" fill="#fff8ea" opacity=".7"/><rect x="-28" y="-42" width="54" height="14" rx="3" fill="#e5851a"/><rect x="-23" y="-40" width="6" height="10" fill="#fff8ea" opacity=".7"/><g transform="translate(6 -43) rotate(-58)"><rect x="0" y="-3.2" width="30" height="6.4" rx="1.4" fill="#1f7a47"/><polygon points="30,-3.2 38,0 30,3.2" fill="#f6d9a0"/><polygon points="35,-1.2 38,0 35,1.2" fill="#3b2f2f"/></g></g><g transform="translate(200 150.0)"><rect x="-30" y="-44" width="60" height="44" rx="2" fill="#fff8ea" stroke="#8a4208" stroke-width="1.6"/><path d="M-40-42 0-76 40-42Z" fill="#8a4208" stroke="#8a4208" stroke-width="3" stroke-linejoin="round"/><rect x="16" y="-72" width="9" height="18" fill="#8a4208"/><path d="M0 3.2C-5.5-3.4-13 2.6 0 12.5 13 2.6 5.5-3.4 0 3.2Z" transform="translate(0 -34) rotate(0) scale(1.5)" fill="#c8381e"/></g><g transform="translate(316 145.6) scale(1.5)"><circle cx="0" cy="-31" r="6.6" fill="#e5851a"/><path d="M-4.5-19-13-31M4.5-19 13-31" stroke="#e5851a" stroke-width="5.4" stroke-linecap="round" fill="none"/><rect x="-6.5" y="-23" width="13" height="34" rx="5.5" fill="#e5851a"/><path d="M-3.4-30.4Q0-26.6 3.4-30.4" stroke="#fff8ea" stroke-width="1.5" stroke-linecap="round" fill="none"/><path d="M-3.8-33.6q1.2-1.4 2.4 0M1.4-33.6q1.2-1.4 2.4 0" stroke="#fff8ea" stroke-width="1.1" stroke-linecap="round" fill="none"/></g><path d="M0 3.2C-5.5-3.4-13 2.6 0 12.5 13 2.6 5.5-3.4 0 3.2Z" transform="translate(142 70) rotate(-10) scale(0.9)" fill="#e5851a"/><path d="M0 3.2C-5.5-3.4-13 2.6 0 12.5 13 2.6 5.5-3.4 0 3.2Z" transform="translate(256 60) rotate(10) scale(0.9)" fill="#f2b21c"/><polygon points="0.0,-6.0 1.6,-1.6 6.0,0.0 1.6,1.6 0.0,6.0 -1.6,1.6 -6.0,0.0 -1.6,-1.6" transform="translate(40 46) rotate(0)" fill="#f2b21c"/><polygon points="0.0,-6.0 1.6,-1.6 6.0,0.0 1.6,1.6 0.0,6.0 -1.6,1.6 -6.0,0.0 -1.6,-1.6" transform="translate(366 52) rotate(12)" fill="#e5851a"/>
<path d="M0 150C70 128 140 132 200 144C260 156 330 130 400 140V200H0Z" fill="#3f9a5f"/>

<path d="M0 166C80 146 150 150 210 160C270 170 336 152 400 158V200H0Z" fill="#0f5132"/>

</svg>